<svg width="256" height="256" viewBox="0 0 256 256" fill="none" xmlns="http://www.w3.org/2000/svg">
<g clip-path="url(#clip0_1_2)">
<path d="M250.15 221.85L190.3 162C203.91 141.795 210.625 116.55 207.03 89.65C200.9 43.895 163.4 6.66001 117.6 0.861511C49.505 -7.75499 -7.75503 49.505 0.861971 117.6C6.66197 163.42 43.902 200.95 89.662 207.05C116.562 210.645 141.812 203.932 162.012 190.32L221.862 250.17C229.672 257.98 242.337 257.98 250.147 250.17C257.95 242.35 257.95 229.65 250.15 221.85ZM39.55 104C39.55 68.71 68.26 40 103.55 40C138.84 40 167.55 68.71 167.55 104C167.55 139.29 138.84 168 103.55 168C68.26 168 39.55 139.3 39.55 104Z" fill="#E5E5E5"/>
</g>
<defs>
<clipPath id="clip0_1_2">
<rect width="256" height="256" fill="white"/>
</clipPath>
</defs>
</svg>
